<svg xmlns="http://www.w3.org/2000/svg" width="640" height="640" viewBox="0 0 640 640" fill="none">
  <rect width="640" height="640" rx="48" fill="#FFFFFF"/>
  <rect x="56" y="56" width="528" height="528" rx="24" fill="#F6F8FB" stroke="#D9E1EA" stroke-width="8" stroke-dasharray="18 16"/>
  <rect x="96" y="96" width="108" height="108" rx="14" fill="#111827"/>
  <rect x="114" y="114" width="72" height="72" rx="8" fill="#FFFFFF"/>
  <rect x="132" y="132" width="36" height="36" rx="4" fill="#111827"/>
  <rect x="436" y="96" width="108" height="108" rx="14" fill="#111827"/>
  <rect x="454" y="114" width="72" height="72" rx="8" fill="#FFFFFF"/>
  <rect x="472" y="132" width="36" height="36" rx="4" fill="#111827"/>
  <rect x="96" y="436" width="108" height="108" rx="14" fill="#111827"/>
  <rect x="114" y="454" width="72" height="72" rx="8" fill="#FFFFFF"/>
  <rect x="132" y="472" width="36" height="36" rx="4" fill="#111827"/>
  <g fill="#111827">
    <rect x="260" y="100" width="20" height="20" rx="4"/>
    <rect x="300" y="100" width="20" height="20" rx="4"/>
    <rect x="340" y="100" width="20" height="20" rx="4"/>
    <rect x="240" y="140" width="20" height="20" rx="4"/>
    <rect x="280" y="140" width="20" height="20" rx="4"/>
    <rect x="320" y="140" width="20" height="20" rx="4"/>
    <rect x="360" y="140" width="20" height="20" rx="4"/>
    <rect x="220" y="180" width="20" height="20" rx="4"/>
    <rect x="260" y="180" width="20" height="20" rx="4"/>
    <rect x="340" y="180" width="20" height="20" rx="4"/>
    <rect x="380" y="180" width="20" height="20" rx="4"/>
    <rect x="240" y="220" width="20" height="20" rx="4"/>
    <rect x="280" y="220" width="20" height="20" rx="4"/>
    <rect x="320" y="220" width="20" height="20" rx="4"/>
    <rect x="360" y="220" width="20" height="20" rx="4"/>
    <rect x="200" y="260" width="20" height="20" rx="4"/>
    <rect x="240" y="260" width="20" height="20" rx="4"/>
    <rect x="280" y="260" width="20" height="20" rx="4"/>
    <rect x="360" y="260" width="20" height="20" rx="4"/>
    <rect x="400" y="260" width="20" height="20" rx="4"/>
    <rect x="220" y="300" width="20" height="20" rx="4"/>
    <rect x="300" y="300" width="20" height="20" rx="4"/>
    <rect x="340" y="300" width="20" height="20" rx="4"/>
    <rect x="380" y="300" width="20" height="20" rx="4"/>
    <rect x="240" y="340" width="20" height="20" rx="4"/>
    <rect x="280" y="340" width="20" height="20" rx="4"/>
    <rect x="320" y="340" width="20" height="20" rx="4"/>
    <rect x="400" y="340" width="20" height="20" rx="4"/>
    <rect x="220" y="380" width="20" height="20" rx="4"/>
    <rect x="260" y="380" width="20" height="20" rx="4"/>
    <rect x="340" y="380" width="20" height="20" rx="4"/>
    <rect x="380" y="380" width="20" height="20" rx="4"/>
    <rect x="420" y="380" width="20" height="20" rx="4"/>
    <rect x="260" y="420" width="20" height="20" rx="4"/>
    <rect x="300" y="420" width="20" height="20" rx="4"/>
    <rect x="360" y="420" width="20" height="20" rx="4"/>
    <rect x="400" y="420" width="20" height="20" rx="4"/>
    <rect x="220" y="460" width="20" height="20" rx="4"/>
    <rect x="280" y="460" width="20" height="20" rx="4"/>
    <rect x="320" y="460" width="20" height="20" rx="4"/>
    <rect x="380" y="460" width="20" height="20" rx="4"/>
    <rect x="420" y="460" width="20" height="20" rx="4"/>
  </g>
  <text x="320" y="598" text-anchor="middle" fill="#5B6472" font-family="Arial, sans-serif" font-size="28">
    Replace with your Twilio QR image
  </text>
</svg>
